{"accessors":[{"name":"pCube1_1_positions","componentType":5126,"count":9756,"min":[-16.14972686767578,-0.1693750023841858,-16.14972686767578],"max":[16.14972686767578,17.364656448364258,16.14972686767578],"type":"VEC3","bufferView":0,"byteOffset":0},{"name":"pCube1_1_normals","componentType":5126,"count":9756,"min":[-1,-1,-1],"max":[1,1,1],"type":"VEC3","bufferView":0,"byteOffset":123408},{"name":"pCube1_1_texcoords","componentType":5126,"count":9756,"min":[0.125,0],"max":[0.875,1],"type":"VEC2","bufferView":1,"byteOffset":0},{"name":"pCube1_1_0_indices","componentType":5123,"count":21684,"min":[0],"max":[9755],"type":"SCALAR","bufferView":2,"byteOffset":0},{"name":"pCube3_1_positions","componentType":5126,"count":24,"min":[-14.344564437866211,0,18.898426055908203],"max":[-11.725570678710938,24.24269676208496,21.517419815063477],"type":"VEC3","bufferView":0,"byteOffset":117072},{"name":"pCube3_1_normals","componentType":5126,"count":24,"min":[-1,-1,-1],"max":[1,1,1],"type":"VEC3","bufferView":0,"byteOffset":240480},{"name":"pCube3_1_texcoords","componentType":5126,"count":24,"min":[0.125,0],"max":[0.875,1],"type":"VEC2","bufferView":1,"byteOffset":78048},{"name":"pCube3_1_0_indices","componentType":5123,"count":36,"min":[0],"max":[23],"type":"SCALAR","bufferView":2,"byteOffset":43368},{"name":"pCube2_1_positions","componentType":5126,"count":24,"min":[-8.406405448913574,0,21.372133255004883],"max":[-4.725175857543945,27.8212833404541,25.053361892700195],"type":"VEC3","bufferView":0,"byteOffset":117360},{"name":"pCube2_1_normals","componentType":5126,"count":24,"min":[-1,-1,-1],"max":[1,1,1],"type":"VEC3","bufferView":0,"byteOffset":240768},{"name":"pCube2_1_texcoords","componentType":5126,"count":24,"min":[0.125,0],"max":[0.875,1],"type":"VEC2","bufferView":1,"byteOffset":78240},{"name":"pCube2_1_0_indices","componentType":5123,"count":36,"min":[0],"max":[23],"type":"SCALAR","bufferView":2,"byteOffset":43440},{"name":"pCube23_1_positions","componentType":5126,"count":24,"min":[18.774738311767578,0,-24.283123016357422],"max":[25.62221908569336,33.4730110168457,-17.43564224243164],"type":"VEC3","bufferView":0,"byteOffset":117648},{"name":"pCube23_1_normals","componentType":5126,"count":24,"min":[-1,-1,-1],"max":[1,1,1],"type":"VEC3","bufferView":0,"byteOffset":241056},{"name":"pCube23_1_texcoords","componentType":5126,"count":24,"min":[0.125,0],"max":[0.875,1],"type":"VEC2","bufferView":1,"byteOffset":78432},{"name":"pCube23_1_0_indices","componentType":5123,"count":36,"min":[0],"max":[23],"type":"SCALAR","bufferView":2,"byteOffset":43512},{"name":"pCube22_1_positions","componentType":5126,"count":24,"min":[-23.81393051147461,0,-23.55364990234375],"max":[-18.211626052856445,29.745634078979492,-17.951345443725586],"type":"VEC3","bufferView":0,"byteOffset":117936},{"name":"pCube22_1_normals","componentType":5126,"count":24,"min":[-1,-1,-1],"max":[1,1,1],"type":"VEC3","bufferView":0,"byteOffset":241344},{"name":"pCube22_1_texcoords","componentType":5126,"count":24,"min":[0.125,0],"max":[0.875,1],"type":"VEC2","bufferView":1,"byteOffset":78624},{"name":"pCube22_1_0_indices","componentType":5123,"count":36,"min":[0],"max":[23],"type":"SCALAR","bufferView":2,"byteOffset":43584},{"name":"pCube21_1_positions","componentType":5126,"count":24,"min":[-22.866899490356445,0,19.541805267333984],"max":[-16.250120162963867,30.37860107421875,26.158584594726562],"type":"VEC3","bufferView":0,"byteOffset":118224},{"name":"pCube21_1_normals","componentType":5126,"count":24,"min":[-1,-1,-1],"max":[1,1,1],"type":"VEC3","bufferView":0,"byteOffset":241632},{"name":"pCube21_1_texcoords","componentType":5126,"count":24,"min":[0.125,0],"max":[0.875,1],"type":"VEC2","bufferView":1,"byteOffset":78816},{"name":"pCube21_1_0_indices","componentType":5123,"count":36,"min":[0],"max":[23],"type":"SCALAR","bufferView":2,"byteOffset":43656},{"name":"pCube20_1_positions","componentType":5126,"count":24,"min":[14.630020141601562,0,-19.907798767089844],"max":[18.269811630249023,30.823923110961914,-16.268007278442383],"type":"VEC3","bufferView":0,"byteOffset":118512},{"name":"pCube20_1_normals","componentType":5126,"count":24,"min":[-1,-1,-1],"max":[1,1,1],"type":"VEC3","bufferView":0,"byteOffset":241920},{"name":"pCube20_1_texcoords","componentType":5126,"count":24,"min":[0.125,0],"max":[0.875,1],"type":"VEC2","bufferView":1,"byteOffset":79008},{"name":"pCube20_1_0_indices","componentType":5123,"count":36,"min":[0],"max":[23],"type":"SCALAR","bufferView":2,"byteOffset":43728},{"name":"pCube17_1_positions","componentType":5126,"count":24,"min":[22.720640182495117,0,0.38268399238586426],"max":[29.5681209564209,42.17491912841797,7.230164051055908],"type":"VEC3","bufferView":0,"byteOffset":118800},{"name":"pCube17_1_normals","componentType":5126,"count":24,"min":[-1,-1,-1],"max":[1,1,1],"type":"VEC3","bufferView":0,"byteOffset":242208},{"name":"pCube17_1_texcoords","componentType":5126,"count":24,"min":[0.125,0],"max":[0.875,1],"type":"VEC2","bufferView":1,"byteOffset":79200},{"name":"pCube17_1_0_indices","componentType":5123,"count":36,"min":[0],"max":[23],"type":"SCALAR","bufferView":2,"byteOffset":43800},{"name":"pCube16_1_positions","componentType":5126,"count":24,"min":[-13.917990684509277,0,-20.7514705657959],"max":[-10.11800479888916,24.24269676208496,-16.95148468017578],"type":"VEC3","bufferView":0,"byteOffset":119088},{"name":"pCube16_1_normals","componentType":5126,"count":24,"min":[-1,-1,-1],"max":[1,1,1],"type":"VEC3","bufferView":0,"byteOffset":242496},{"name":"pCube16_1_texcoords","componentType":5126,"count":24,"min":[0.125,0],"max":[0.875,1],"type":"VEC2","bufferView":1,"byteOffset":79392},{"name":"pCube16_1_0_indices","componentType":5123,"count":36,"min":[0],"max":[23],"type":"SCALAR","bufferView":2,"byteOffset":43872},{"name":"pCube19_1_positions","componentType":5126,"count":24,"min":[20.75160026550293,0,10.457328796386719],"max":[23.370594024658203,28.006925582885742,13.076322555541992],"type":"VEC3","bufferView":0,"byteOffset":119376},{"name":"pCube19_1_normals","componentType":5126,"count":24,"min":[-1,-1,-1],"max":[1,1,1],"type":"VEC3","bufferView":0,"byteOffset":242784},{"name":"pCube19_1_texcoords","componentType":5126,"count":24,"min":[0.125,0],"max":[0.875,1],"type":"VEC2","bufferView":1,"byteOffset":79584},{"name":"pCube19_1_0_indices","componentType":5123,"count":36,"min":[0],"max":[23],"type":"SCALAR","bufferView":2,"byteOffset":43944},{"name":"pCube18_1_positions","componentType":5126,"count":24,"min":[12.784936904907227,0,17.648792266845703],"max":[16.378877639770508,30.01494789123535,21.24273109436035],"type":"VEC3","bufferView":0,"byteOffset":119664},{"name":"pCube18_1_normals","componentType":5126,"count":24,"min":[-1,-1,-1],"max":[1,1,1],"type":"VEC3","bufferView":0,"byteOffset":243072},{"name":"pCube18_1_texcoords","componentType":5126,"count":24,"min":[0.125,0],"max":[0.875,1],"type":"VEC2","bufferView":1,"byteOffset":79776},{"name":"pCube18_1_0_indices","componentType":5123,"count":36,"min":[0],"max":[23],"type":"SCALAR","bufferView":2,"byteOffset":44016},{"name":"pCube14_1_positions","componentType":5126,"count":24,"min":[1.5047509670257568,0,25.49215316772461],"max":[8.121529579162598,39.445125579833984,32.10893249511719],"type":"VEC3","bufferView":0,"byteOffset":119952},{"name":"pCube14_1_normals","componentType":5126,"count":24,"min":[-1,-1,-1],"max":[1,1,1],"type":"VEC3","bufferView":0,"byteOffset":243360},{"name":"pCube14_1_texcoords","componentType":5126,"count":24,"min":[0.125,0],"max":[0.875,1],"type":"VEC2","bufferView":1,"byteOffset":79968},{"name":"pCube14_1_0_indices","componentType":5123,"count":36,"min":[0],"max":[23],"type":"SCALAR","bufferView":2,"byteOffset":44088},{"name":"pCube13_1_positions","componentType":5126,"count":24,"min":[-20.4796199798584,0,-9.666675567626953],"max":[-17.860626220703125,24.24269676208496,-7.04768180847168],"type":"VEC3","bufferView":0,"byteOffset":120240},{"name":"pCube13_1_normals","componentType":5126,"count":24,"min":[-1,-1,-1],"max":[1,1,1],"type":"VEC3","bufferView":0,"byteOffset":243648},{"name":"pCube13_1_texcoords","componentType":5126,"count":24,"min":[0.125,0],"max":[0.875,1],"type":"VEC2","bufferView":1,"byteOffset":80160},{"name":"pCube13_1_0_indices","componentType":5123,"count":36,"min":[0],"max":[23],"type":"SCALAR","bufferView":2,"byteOffset":44160},{"name":"pCube12_1_positions","componentType":5126,"count":24,"min":[-28.078073501586914,0,-0.8215950131416321],"max":[-22.475770950317383,37.9891471862793,4.780706882476807],"type":"VEC3","bufferView":0,"byteOffset":120528},{"name":"pCube12_1_normals","componentType":5126,"count":24,"min":[-1,-1,-1],"max":[1,1,1],"type":"VEC3","bufferView":0,"byteOffset":243936},{"name":"pCube12_1_texcoords","componentType":5126,"count":24,"min":[0.125,0],"max":[0.875,1],"type":"VEC2","bufferView":1,"byteOffset":80352},{"name":"pCube12_1_0_indices","componentType":5123,"count":36,"min":[0],"max":[23],"type":"SCALAR","bufferView":2,"byteOffset":44232},{"name":"pCube11_1_positions","componentType":5126,"count":24,"min":[-22.79759979248047,0,12.42345905303955],"max":[-20.178606033325195,26.3302059173584,15.042452812194824],"type":"VEC3","bufferView":0,"byteOffset":120816},{"name":"pCube11_1_normals","componentType":5126,"count":24,"min":[-1,-1,-1],"max":[1,1,1],"type":"VEC3","bufferView":0,"byteOffset":244224},{"name":"pCube11_1_texcoords","componentType":5126,"count":24,"min":[0.125,0],"max":[0.875,1],"type":"VEC2","bufferView":1,"byteOffset":80544},{"name":"pCube11_1_0_indices","componentType":5123,"count":36,"min":[0],"max":[23],"type":"SCALAR","bufferView":2,"byteOffset":44304},{"name":"pCube15_1_positions","componentType":5126,"count":24,"min":[-27.45121955871582,0,-6.861579895019531],"max":[-23.65121078491211,27.743745803833008,-3.061570882797241],"type":"VEC3","bufferView":0,"byteOffset":121104},{"name":"pCube15_1_normals","componentType":5126,"count":24,"min":[-1,-1,-1],"max":[1,1,1],"type":"VEC3","bufferView":0,"byteOffset":244512},{"name":"pCube15_1_texcoords","componentType":5126,"count":24,"min":[0.125,0],"max":[0.875,1],"type":"VEC2","bufferView":1,"byteOffset":80736},{"name":"pCube15_1_0_indices","componentType":5123,"count":36,"min":[0],"max":[23],"type":"SCALAR","bufferView":2,"byteOffset":44376},{"name":"pCube7_1_positions","componentType":5126,"count":24,"min":[6.1133809089660645,0,-23.521833419799805],"max":[9.753171920776367,28.484949111938477,-19.882041931152344],"type":"VEC3","bufferView":0,"byteOffset":121392},{"name":"pCube7_1_normals","componentType":5126,"count":24,"min":[-1,-1,-1],"max":[1,1,1],"type":"VEC3","bufferView":0,"byteOffset":244800},{"name":"pCube7_1_texcoords","componentType":5126,"count":24,"min":[0.125,0],"max":[0.875,1],"type":"VEC2","bufferView":1,"byteOffset":80928},{"name":"pCube7_1_0_indices","componentType":5123,"count":36,"min":[0],"max":[23],"type":"SCALAR","bufferView":2,"byteOffset":44448},{"name":"pCube6_1_positions","componentType":5126,"count":24,"min":[-2.335236072540283,0,-27.181123733520508],"max":[2.335236072540283,35.30857849121094,-22.510650634765625],"type":"VEC3","bufferView":0,"byteOffset":121680},{"name":"pCube6_1_normals","componentType":5126,"count":24,"min":[-1,-1,-1],"max":[1,1,1],"type":"VEC3","bufferView":0,"byteOffset":245088},{"name":"pCube6_1_texcoords","componentType":5126,"count":24,"min":[0.125,0],"max":[0.875,1],"type":"VEC2","bufferView":1,"byteOffset":81120},{"name":"pCube6_1_0_indices","componentType":5123,"count":36,"min":[0],"max":[23],"type":"SCALAR","bufferView":2,"byteOffset":44520},{"name":"pCube5_1_positions","componentType":5126,"count":24,"min":[-7.778773784637451,0,-22.318904876708984],"max":[-5.159780979156494,29.44867706298828,-19.69991111755371],"type":"VEC3","bufferView":0,"byteOffset":121968},{"name":"pCube5_1_normals","componentType":5126,"count":24,"min":[-1,-1,-1],"max":[1,1,1],"type":"VEC3","bufferView":0,"byteOffset":245376},{"name":"pCube5_1_texcoords","componentType":5126,"count":24,"min":[0.125,0],"max":[0.875,1],"type":"VEC2","bufferView":1,"byteOffset":81312},{"name":"pCube5_1_0_indices","componentType":5123,"count":36,"min":[0],"max":[23],"type":"SCALAR","bufferView":2,"byteOffset":44592},{"name":"pCube4_1_positions","componentType":5126,"count":24,"min":[6.136305809020996,0,21.044506072998047],"max":[9.730246543884277,26.3302059173584,24.638446807861328],"type":"VEC3","bufferView":0,"byteOffset":122256},{"name":"pCube4_1_normals","componentType":5126,"count":24,"min":[-1,-1,-1],"max":[1,1,1],"type":"VEC3","bufferView":0,"byteOffset":245664},{"name":"pCube4_1_texcoords","componentType":5126,"count":24,"min":[0.125,0],"max":[0.875,1],"type":"VEC2","bufferView":1,"byteOffset":81504},{"name":"pCube4_1_0_indices","componentType":5123,"count":36,"min":[0],"max":[23],"type":"SCALAR","bufferView":2,"byteOffset":44664},{"name":"pCube10_1_positions","componentType":5126,"count":24,"min":[17.89147186279297,0,5.663033962249756],"max":[20.510465621948242,26.3302059173584,8.282028198242188],"type":"VEC3","bufferView":0,"byteOffset":122544},{"name":"pCube10_1_normals","componentType":5126,"count":24,"min":[-1,-1,-1],"max":[1,1,1],"type":"VEC3","bufferView":0,"byteOffset":245952},{"name":"pCube10_1_texcoords","componentType":5126,"count":24,"min":[0.125,0],"max":[0.875,1],"type":"VEC2","bufferView":1,"byteOffset":81696},{"name":"pCube10_1_0_indices","componentType":5123,"count":36,"min":[0],"max":[23],"type":"SCALAR","bufferView":2,"byteOffset":44736},{"name":"pCube9_1_positions","componentType":5126,"count":24,"min":[20.556692123413086,0,-5.544189929962158],"max":[25.324565887451172,31.816871643066406,-0.7763159871101379],"type":"VEC3","bufferView":0,"byteOffset":122832},{"name":"pCube9_1_normals","componentType":5126,"count":24,"min":[-1,-1,-1],"max":[1,1,1],"type":"VEC3","bufferView":0,"byteOffset":246240},{"name":"pCube9_1_texcoords","componentType":5126,"count":24,"min":[0.125,0],"max":[0.875,1],"type":"VEC2","bufferView":1,"byteOffset":81888},{"name":"pCube9_1_0_indices","componentType":5123,"count":36,"min":[0],"max":[23],"type":"SCALAR","bufferView":2,"byteOffset":44808},{"name":"pCube8_1_positions","componentType":5126,"count":24,"min":[17.203824996948242,0,-10.083075523376465],"max":[20.65561866760254,24.24269676208496,-6.631281852722168],"type":"VEC3","bufferView":0,"byteOffset":123120},{"name":"pCube8_1_normals","componentType":5126,"count":24,"min":[-1,-1,-1],"max":[1,1,1],"type":"VEC3","bufferView":0,"byteOffset":246528},{"name":"pCube8_1_texcoords","componentType":5126,"count":24,"min":[0.125,0],"max":[0.875,1],"type":"VEC2","bufferView":1,"byteOffset":82080},{"name":"pCube8_1_0_indices","componentType":5123,"count":36,"min":[0],"max":[23],"type":"SCALAR","bufferView":2,"byteOffset":44880}],"asset":{"generator":"obj2gltf","version":"2.0"},"buffers":[{"name":"input","byteLength":374040,"uri":"data:application/octet-stream;base64,"}],"bufferViews":[{"name":"bufferView_0","buffer":0,"byteLength":246816,"byteOffset":0,"byteStride":12,"target":34962},{"name":"bufferView_1","buffer":0,"byteLength":82272,"byteOffset":246816,"byteStride":8,"target":34962},{"name":"bufferView_2","buffer":0,"byteLength":44952,"byteOffset":329088,"target":34963}],"materials":[{"name":"initialShadingGroup","pbrMetallicRoughness":{"baseColorFactor":[0.5,0.5,0.5,1],"metallicFactor":0,"roughnessFactor":1},"emissiveFactor":[0,0,0],"alphaMode":"OPAQUE","doubleSided":false}],"meshes":[{"name":"pCube1_1","primitives":[{"attributes":{"POSITION":0,"NORMAL":1,"TEXCOORD_0":2},"indices":3,"material":0,"mode":4}]},{"name":"pCube3_1","primitives":[{"attributes":{"POSITION":4,"NORMAL":5,"TEXCOORD_0":6},"indices":7,"material":0,"mode":4}]},{"name":"pCube2_1","primitives":[{"attributes":{"POSITION":8,"NORMAL":9,"TEXCOORD_0":10},"indices":11,"material":0,"mode":4}]},{"name":"pCube23_1","primitives":[{"attributes":{"POSITION":12,"NORMAL":13,"TEXCOORD_0":14},"indices":15,"material":0,"mode":4}]},{"name":"pCube22_1","primitives":[{"attributes":{"POSITION":16,"NORMAL":17,"TEXCOORD_0":18},"indices":19,"material":0,"mode":4}]},{"name":"pCube21_1","primitives":[{"attributes":{"POSITION":20,"NORMAL":21,"TEXCOORD_0":22},"indices":23,"material":0,"mode":4}]},{"name":"pCube20_1","primitives":[{"attributes":{"POSITION":24,"NORMAL":25,"TEXCOORD_0":26},"indices":27,"material":0,"mode":4}]},{"name":"pCube17_1","primitives":[{"attributes":{"POSITION":28,"NORMAL":29,"TEXCOORD_0":30},"indices":31,"material":0,"mode":4}]},{"name":"pCube16_1","primitives":[{"attributes":{"POSITION":32,"NORMAL":33,"TEXCOORD_0":34},"indices":35,"material":0,"mode":4}]},{"name":"pCube19_1","primitives":[{"attributes":{"POSITION":36,"NORMAL":37,"TEXCOORD_0":38},"indices":39,"material":0,"mode":4}]},{"name":"pCube18_1","primitives":[{"attributes":{"POSITION":40,"NORMAL":41,"TEXCOORD_0":42},"indices":43,"material":0,"mode":4}]},{"name":"pCube14_1","primitives":[{"attributes":{"POSITION":44,"NORMAL":45,"TEXCOORD_0":46},"indices":47,"material":0,"mode":4}]},{"name":"pCube13_1","primitives":[{"attributes":{"POSITION":48,"NORMAL":49,"TEXCOORD_0":50},"indices":51,"material":0,"mode":4}]},{"name":"pCube12_1","primitives":[{"attributes":{"POSITION":52,"NORMAL":53,"TEXCOORD_0":54},"indices":55,"material":0,"mode":4}]},{"name":"pCube11_1","primitives":[{"attributes":{"POSITION":56,"NORMAL":57,"TEXCOORD_0":58},"indices":59,"material":0,"mode":4}]},{"name":"pCube15_1","primitives":[{"attributes":{"POSITION":60,"NORMAL":61,"TEXCOORD_0":62},"indices":63,"material":0,"mode":4}]},{"name":"pCube7_1","primitives":[{"attributes":{"POSITION":64,"NORMAL":65,"TEXCOORD_0":66},"indices":67,"material":0,"mode":4}]},{"name":"pCube6_1","primitives":[{"attributes":{"POSITION":68,"NORMAL":69,"TEXCOORD_0":70},"indices":71,"material":0,"mode":4}]},{"name":"pCube5_1","primitives":[{"attributes":{"POSITION":72,"NORMAL":73,"TEXCOORD_0":74},"indices":75,"material":0,"mode":4}]},{"name":"pCube4_1","primitives":[{"attributes":{"POSITION":76,"NORMAL":77,"TEXCOORD_0":78},"indices":79,"material":0,"mode":4}]},{"name":"pCube10_1","primitives":[{"attributes":{"POSITION":80,"NORMAL":81,"TEXCOORD_0":82},"indices":83,"material":0,"mode":4}]},{"name":"pCube9_1","primitives":[{"attributes":{"POSITION":84,"NORMAL":85,"TEXCOORD_0":86},"indices":87,"material":0,"mode":4}]},{"name":"pCube8_1","primitives":[{"attributes":{"POSITION":88,"NORMAL":89,"TEXCOORD_0":90},"indices":91,"material":0,"mode":4}]}],"nodes":[{"name":"pCube1","mesh":0},{"name":"pCube3","mesh":1},{"name":"pCube2","mesh":2},{"name":"pCube23","mesh":3},{"name":"pCube22","mesh":4},{"name":"pCube21","mesh":5},{"name":"pCube20","mesh":6},{"name":"pCube17","mesh":7},{"name":"pCube16","mesh":8},{"name":"pCube19","mesh":9},{"name":"pCube18","mesh":10},{"name":"pCube14","mesh":11},{"name":"pCube13","mesh":12},{"name":"pCube12","mesh":13},{"name":"pCube11","mesh":14},{"name":"pCube15","mesh":15},{"name":"pCube7","mesh":16},{"name":"pCube6","mesh":17},{"name":"pCube5","mesh":18},{"name":"pCube4","mesh":19},{"name":"pCube10","mesh":20},{"name":"pCube9","mesh":21},{"name":"pCube8","mesh":22}],"scene":0,"scenes":[{"nodes":[0,1,2,3,4,5,6,7,8,9,10,11,12,13,14,15,16,17,18,19,20,21,22]}]}
